<svg width="83" height="36" viewBox="0 0 83 36" fill="none" xmlns="http://www.w3.org/2000/svg">
<path d="M82.3505 2.52679C81.6697 1.40511 80.4447 0.689337 78.917 0.689337C78.917 0.689337 61.2965 0.684569 61.1972 0.681845C60.0549 0.655285 59.1547 1.07889 58.5338 1.72657C57.2289 1.75245 56.1779 2.84076 56.1779 4.18037C56.1779 5.51999 57.2542 6.63554 58.5819 6.63554C58.5859 6.63554 58.5899 6.63554 58.5939 6.63554C59.2254 7.2117 60.1516 7.59853 61.4099 7.62305H72.124C72.0999 7.64348 72.0766 7.66391 72.0546 7.68298C71.5785 8.09978 63.3324 15.071 59.7295 18.1159V18.1016C58.9313 18.7738 58.3598 19.2553 58.1531 19.4296C56.0412 16.0067 49.8063 17.1761 49.8063 14.9858C49.8063 13.9241 50.8779 13.5209 51.7715 13.5209C53.0571 13.5209 54.0927 14.0337 54.8789 15.0219L58.1658 11.6896C56.558 9.93179 54.022 9.34609 51.7355 9.34609C48.8307 9.34609 45.9327 10.5141 44.8737 13.1014C43.412 10.7708 40.9301 9.34609 37.7893 9.34609C35.36 9.34609 33.2881 10.8478 32.4659 12.1288H32.3946V9.78537H27.4653V11.6215C26.2463 5.05279 20.985 0.99785 14.0866 0.99785C6.19195 0.99785 0.440491 6.30727 0.440491 14.6194C0.440491 22.9316 6.19195 28.241 14.0866 28.241C20.985 28.241 26.247 24.1861 27.4647 17.6167V35.9307H32.8233V25.6782H32.8947C34.109 27.3992 36.1809 28.0217 38.3954 28.0217C43.0759 28.0217 46.012 23.9279 46.2974 19.2825C48.9414 21.1636 53.4846 20.5397 53.4846 22.5658C53.4846 23.5179 52.2696 23.8476 51.0553 23.8476C49.4476 23.8476 48.2686 23.1515 47.269 21.9066L44.0182 25.6047C45.7326 27.3985 48.412 28.0217 50.8406 28.0217C53.0071 28.0217 55.367 27.5729 56.9588 26.2993C57.665 27.2562 58.8066 27.8528 60.2009 27.8528L62.0461 27.8562C62.0401 27.8487 62.0354 27.8412 62.0294 27.8337C66.5219 27.8351 77.746 27.8385 77.8254 27.8405C78.8937 27.8685 79.7165 27.4387 80.27 26.7815C81.501 26.6739 82.4672 25.6197 82.4672 24.3345C82.4672 23.0494 81.4116 21.9005 80.102 21.8787C79.5225 21.3032 78.6849 20.9211 77.5687 20.9H67.0173C67.0333 20.8864 67.0493 20.8721 67.0647 20.8592C67.6755 20.3245 81.0515 9.02192 81.0515 9.02192C81.673 8.40829 82.1612 7.68503 82.4839 6.91476C82.6373 6.54904 82.7533 6.17243 82.828 5.79172L82.8413 5.72226C82.8447 5.70523 82.8467 5.68888 82.85 5.67254C83.0741 4.47118 82.8727 3.3781 82.3499 2.52679H82.3505ZM58.5812 6.49933C57.3295 6.49933 56.3106 5.45937 56.3106 4.18037C56.3106 2.90137 57.3289 1.86141 58.5812 1.86141C59.8335 1.86141 60.8518 2.90137 60.8518 4.18037C60.8518 5.45937 59.8335 6.49933 58.5812 6.49933ZM63.227 5.57106C62.4822 6.67844 61.0065 6.96516 59.9155 6.2235C60.5604 5.78355 60.9851 5.03304 60.9851 4.18105C60.9851 3.32906 60.5604 2.57924 59.9149 2.1386C60.7084 1.59989 61.774 1.57333 62.6069 2.15767C63.7012 2.92521 63.9786 4.45347 63.227 5.57106ZM14.0866 22.9677C9.33541 22.9677 6.22729 19.4521 6.22729 14.6194C6.22729 9.78673 9.33541 6.2705 14.0866 6.2705C18.8378 6.2705 21.9459 9.78605 21.9459 14.6194C21.9459 19.4528 18.8378 22.9677 14.0866 22.9677ZM36.6803 23.1876C34.001 23.1876 32.3939 21.357 32.3939 18.6832C32.3939 16.0094 34.0016 14.1795 36.6803 14.1795C39.359 14.1795 40.9667 16.0101 40.9667 18.6832C40.9667 21.3563 39.3597 23.1876 36.6803 23.1876ZM75.6775 22.9445C76.393 21.8814 77.782 21.5736 78.8577 22.2083C78.1395 22.6333 77.6567 23.426 77.6567 24.3345C77.6567 25.243 78.1401 26.0365 78.859 26.4614C78.0821 26.9177 77.0852 26.9102 76.2977 26.3572C75.2034 25.5897 74.926 24.0614 75.6775 22.9438V22.9445Z" fill="#9747FF"/>
</svg>
