<svg width="48" height="48" viewBox="0 0 48 48" fill="none" xmlns="http://www.w3.org/2000/svg">
<g id="Frame">
<path id="Vector" d="M33 39.1428C34.6569 39.1428 36 37.7997 36 36.1428C36 34.486 34.6569 33.1428 33 33.1428C31.3431 33.1428 30 34.486 30 36.1428C30 37.7997 31.3431 39.1428 33 39.1428Z" fill="white"/>
<path id="Vector_2" d="M44.6657 35.3613C43.7389 33.0002 42.1395 30.9629 40.0659 29.502C37.9923 28.0411 35.5355 27.2208 33.0002 27.1428C30.4648 27.2208 28.0081 28.0411 25.9345 29.502C23.8608 30.9629 22.2615 33.0002 21.3347 35.3613L21.0002 36.1428L21.3347 36.9258C22.2617 39.2867 23.8612 41.3237 25.9348 42.7843C28.0084 44.2449 30.465 45.065 33.0002 45.1428C35.5354 45.065 37.992 44.2449 40.0656 42.7843C42.1392 41.3237 43.7386 39.2867 44.6657 36.9258L45.0002 36.1428L44.6657 35.3613ZM33.0002 42.1428C31.8135 42.1428 30.6535 41.7909 29.6668 41.1316C28.6801 40.4724 27.911 39.5353 27.4569 38.4389C27.0028 37.3426 26.884 36.1362 27.1155 34.9723C27.347 33.8084 27.9184 32.7393 28.7576 31.9002C29.5967 31.0611 30.6658 30.4896 31.8296 30.2581C32.9935 30.0266 34.1999 30.1454 35.2963 30.5995C36.3926 31.0537 37.3297 31.8227 37.989 32.8094C38.6483 33.7961 39.0002 34.9561 39.0002 36.1428C38.9982 37.7335 38.3654 39.2585 37.2406 40.3833C36.1159 41.5081 34.5909 42.1408 33.0002 42.1428ZM18.0002 36.1428C16.9994 36.1429 16.0144 35.8925 15.1351 35.4147C14.2557 34.9368 13.5099 34.2465 12.9654 33.4067C12.421 32.567 12.0953 31.6043 12.0179 30.6065C11.9406 29.6087 12.1141 28.6074 12.5226 27.6937C12.9311 26.7801 13.5617 25.9831 14.3569 25.3755C15.1521 24.7678 16.0867 24.3687 17.0756 24.2145C18.0644 24.0603 19.0762 24.1559 20.0186 24.4926C20.9611 24.8293 21.8044 25.3964 22.4717 26.1423L20.2367 28.1433C19.9031 27.7702 19.4816 27.4865 19.0103 27.318C18.5391 27.1495 18.0332 27.1015 17.5387 27.1785C17.0442 27.2555 16.5769 27.455 16.1791 27.7587C15.7814 28.0625 15.4661 28.461 15.2617 28.9178C15.0573 29.3746 14.9705 29.8753 15.0091 30.3742C15.0477 30.8732 15.2105 31.3546 15.4827 31.7745C15.7549 32.1945 16.1278 32.5397 16.5675 32.7786C17.0072 33.0176 17.4997 33.1428 18.0002 33.1428V36.1428Z" fill="white"/>
<path id="Vector_3" d="M39.0002 3.14271C38.0294 3.14629 37.0752 3.39388 36.2252 3.86271L11.6402 16.5827C8.55035 18.0271 6.04571 20.4823 4.54008 23.5428C3.03444 26.6032 2.6179 30.0857 3.35928 33.4149C4.10066 36.7441 5.95559 39.7208 8.6176 41.8532C11.2796 43.9855 14.5894 45.1459 18.0002 45.1427V42.1427C16.0286 42.1436 14.0872 41.6587 12.3476 40.7309C10.608 39.8031 9.1238 38.461 8.02622 36.8232C6.92865 35.1854 6.25152 33.3024 6.0547 31.3407C5.85788 29.3789 6.14744 27.399 6.89778 25.5758C7.64811 23.7526 8.83611 22.1423 10.3567 20.8874C11.8773 19.6325 13.6837 18.7716 15.6162 18.3808C17.5486 17.99 19.5476 18.0814 21.4363 18.6468C23.325 19.2122 25.0454 20.2343 26.4452 21.6227L28.5452 19.5227C26.3448 17.3348 23.5201 15.8831 20.4602 15.3677L33.0302 8.85772C33.0302 8.94772 33.0002 9.03772 33.0002 9.14272C33.0002 10.734 33.6323 12.2601 34.7575 13.3854C35.8828 14.5106 37.4089 15.1427 39.0002 15.1427C39.0902 15.1427 39.1802 15.1127 39.2852 15.1127L34.6052 24.1427H37.9652L44.3402 11.8277C44.809 10.9162 45.0347 9.89919 44.9957 8.87494C44.9566 7.85069 44.654 6.85383 44.1172 5.98068C43.5803 5.10752 42.8273 4.3876 41.9309 3.89046C41.0346 3.39332 40.0251 3.13578 39.0002 3.14271ZM39.0002 12.1427C38.4068 12.1427 37.8268 11.9668 37.3335 11.6371C36.8401 11.3075 36.4556 10.8389 36.2285 10.2908C36.0015 9.74259 35.9421 9.13939 36.0578 8.55744C36.1736 7.9755 36.4593 7.44095 36.8789 7.02139C37.2984 6.60184 37.833 6.31611 38.4149 6.20036C38.9968 6.0846 39.6 6.14401 40.1482 6.37108C40.6964 6.59814 41.1649 6.98266 41.4946 7.476C41.8242 7.96935 42.0002 8.54937 42.0002 9.14272C41.9978 9.93763 41.681 10.6993 41.1189 11.2614C40.5568 11.8235 39.7951 12.1403 39.0002 12.1427Z" fill="white"/>
</g>
</svg>
