<svg width="48" height="48" viewBox="0 0 48 48" fill="none" xmlns="http://www.w3.org/2000/svg">
<g id="Frame">
<path id="Vector" d="M42 18.1428H30V6.14282H42V18.1428ZM33 15.1428H39V9.14282H33V15.1428Z" fill="white"/>
<path id="Vector_2" d="M25.5 22.6428V13.6428H13.5V34.6428H34.5V22.6428H25.5ZM16.5 16.6428H22.5V22.6428H16.5V16.6428ZM22.5 31.6428H16.5V25.6428H22.5V31.6428ZM31.5 31.6428H25.5V25.6428H31.5V31.6428Z" fill="white"/>
<path id="Vector_3" d="M39 42.1428H9C8.20459 42.142 7.44199 41.8257 6.87956 41.2633C6.31712 40.7008 6.00079 39.9382 6 39.1428V9.14282C6.00079 8.34742 6.31712 7.58482 6.87956 7.02238C7.44199 6.45994 8.20459 6.14362 9 6.14282H24V9.14282H9V39.1428H39V24.1428H42V39.1428C41.9992 39.9382 41.6829 40.7008 41.1204 41.2633C40.558 41.8257 39.7954 42.142 39 42.1428Z" fill="white"/>
</g>
</svg>
