<svg width="24" height="19" viewBox="0 0 24 19" fill="none" xmlns="http://www.w3.org/2000/svg">
<path d="M12 0C12.4988 0 12.9 0.39707 12.9 0.890625V3.5625H16.8C18.7875 3.5625 20.4 5.1582 20.4 7.125V15.4375C20.4 17.4043 18.7875 19 16.8 19H7.2C5.2125 19 3.6 17.4043 3.6 15.4375V7.125C3.6 5.1582 5.2125 3.5625 7.2 3.5625H11.1V0.890625C11.1 0.39707 11.5013 0 12 0ZM7.2 5.34375C6.20625 5.34375 5.4 6.1416 5.4 7.125V15.4375C5.4 16.4209 6.20625 17.2188 7.2 17.2188H16.8C17.7938 17.2188 18.6 16.4209 18.6 15.4375V7.125C18.6 6.1416 17.7938 5.34375 16.8 5.34375H12H7.2ZM1.8 8.3125H2.4V15.4375H1.8C0.80625 15.4375 0 14.6396 0 13.6562V10.0938C0 9.11035 0.80625 8.3125 1.8 8.3125ZM22.2 8.3125C23.1938 8.3125 24 9.11035 24 10.0938V13.6562C24 14.6396 23.1938 15.4375 22.2 15.4375H21.6V8.3125H22.2ZM7.8 14.25H9C9.33 14.25 9.6 14.5172 9.6 14.8438C9.6 15.1703 9.33 15.4375 9 15.4375H7.8C7.47 15.4375 7.2 15.1703 7.2 14.8438C7.2 14.5172 7.47 14.25 7.8 14.25ZM11.4 14.25H12.6C12.93 14.25 13.2 14.5172 13.2 14.8438C13.2 15.1703 12.93 15.4375 12.6 15.4375H11.4C11.07 15.4375 10.8 15.1703 10.8 14.8438C10.8 14.5172 11.07 14.25 11.4 14.25ZM15 14.25H16.2C16.53 14.25 16.8 14.5172 16.8 14.8438C16.8 15.1703 16.53 15.4375 16.2 15.4375H15C14.67 15.4375 14.4 15.1703 14.4 14.8438C14.4 14.5172 14.67 14.25 15 14.25ZM7.5 9.5C7.5 9.10632 7.65804 8.72876 7.93934 8.45039C8.22064 8.17201 8.60218 8.01562 9 8.01562C9.39783 8.01562 9.77936 8.17201 10.0607 8.45039C10.342 8.72876 10.5 9.10632 10.5 9.5C10.5 9.89368 10.342 10.2712 10.0607 10.5496C9.77936 10.828 9.39783 10.9844 9 10.9844C8.60218 10.9844 8.22064 10.828 7.93934 10.5496C7.65804 10.2712 7.5 9.89368 7.5 9.5ZM15 8.01562C15.3978 8.01562 15.7794 8.17201 16.0607 8.45039C16.342 8.72876 16.5 9.10632 16.5 9.5C16.5 9.89368 16.342 10.2712 16.0607 10.5496C15.7794 10.828 15.3978 10.9844 15 10.9844C14.6022 10.9844 14.2206 10.828 13.9393 10.5496C13.658 10.2712 13.5 9.89368 13.5 9.5C13.5 9.10632 13.658 8.72876 13.9393 8.45039C14.2206 8.17201 14.6022 8.01562 15 8.01562Z" fill="#C57AFF"/>
</svg>
