<svg width="22" height="22" viewBox="0 0 22 22" fill="none" xmlns="http://www.w3.org/2000/svg">
<path d="M13.8918 0C13.0539 0 12.375 0.678906 12.375 1.5168C12.375 1.9207 12.534 2.30312 12.8176 2.59102L14.0121 3.78125L11.3438 6.44961C10.5402 7.25313 10.5402 8.55937 11.3438 9.36719L12.6371 10.6562C13.4406 11.4598 14.7469 11.4598 15.5547 10.6562L18.2188 7.98789L19.409 9.17813C19.6926 9.46172 20.0793 9.6207 20.4832 9.6207C21.3211 9.6207 22 8.9418 22 8.10391V1.71875C22 0.769141 21.2309 0 20.2812 0H13.8918ZM16.1992 3.05078L15.2109 2.0625H19.9375V6.79336L18.9492 5.80508C18.5453 5.40117 17.8922 5.40117 17.4926 5.80508L14.098 9.19961L12.8004 7.90625L16.1949 4.51172C16.5988 4.10781 16.5988 3.45469 16.1949 3.05508L16.1992 3.05078ZM8.1082 22C8.94609 22 9.625 21.3211 9.625 20.4832C9.625 20.0793 9.46602 19.6969 9.18242 19.409L7.98789 18.2188L10.6562 15.5504C11.4598 14.7469 11.4598 13.4406 10.6562 12.6328L9.36289 11.3438C8.55937 10.5402 7.25313 10.5402 6.44531 11.3438L3.78125 14.0121L2.59102 12.8176C2.30742 12.534 1.9207 12.375 1.5168 12.375C0.678906 12.375 0 13.0539 0 13.8918V20.2812C0 21.2309 0.769141 22 1.71875 22H8.1082ZM5.80078 18.9492L6.78906 19.9375H2.0625V15.2066L3.05078 16.1949C3.45469 16.5988 4.10781 16.5988 4.50742 16.1949L7.90195 12.8004L9.19961 14.0938L5.80508 17.4883C5.40117 17.8922 5.40117 18.5453 5.80508 18.9449L5.80078 18.9492Z" fill="#9CCAFF"/>
</svg>
