<svg width="22" height="22" viewBox="0 0 22 22" fill="none" xmlns="http://www.w3.org/2000/svg">
<path d="M0 1.375C0 0.613021 0.459721 0 1.03115 0H4.1246H6.19549C6.94737 0 7.65628 0.469792 8.10741 1.26615L12.782 9.44167C12.8464 9.55625 12.9495 9.625 13.0569 9.625H18.4791L16.8034 7.39062C16.3996 6.85208 16.3996 5.98125 16.8034 5.44844C17.2073 4.91563 17.8604 4.9099 18.2599 5.44844L21.6971 10.0318C22.101 10.5703 22.101 11.4411 21.6971 11.974L18.2599 16.5573C17.8561 17.0958 17.203 17.0958 16.8034 16.5573C16.4039 16.0188 16.3996 15.1479 16.8034 14.6151L18.4791 12.3807H13.0569C12.9495 12.3807 12.8464 12.4495 12.782 12.5641L8.10741 20.7339C7.65199 21.5302 6.94307 22 6.19549 22H4.1246H1.03115C0.459721 22 0 21.387 0 20.625C0 19.863 0.459721 19.25 1.03115 19.25H4.1246H6.19549C6.3029 19.25 6.40602 19.1812 6.47046 19.0667L11.0763 11L6.46617 2.93333C6.40172 2.81875 6.2986 2.75 6.19119 2.75H4.1246H1.03115C0.459721 2.75 0 2.13698 0 1.375Z" fill="#80FF91"/>
</svg>
